<svg xmlns="http://www.w3.org/2000/svg" fill="none" viewBox="0 0 473 309">
  <mask id="a" width="184" height="96" x="1" y="26" maskUnits="userSpaceOnUse">
    <path fill="#fff" fill-rule="evenodd"
          d="M175.136 121.981L112.08 87.508 10.53 31.995l.092-1.734 159.159 16.064 5.324 75.294.031.362z"
          clip-rule="evenodd"/>
  </mask>
  <g mask="url(#a)">
    <path fill="url(#paint0_linear)" fill-rule="evenodd"
          d="M175.136 121.981L112.08 87.508 10.53 31.995l.092-1.734 159.159 16.064 5.324 75.294.031.362z"
          clip-rule="evenodd"/>
  </g>
  <mask id="b" width="72" height="51" x="110" y="72" maskUnits="userSpaceOnUse">
    <path fill="#fff" fill-rule="evenodd" d="M176.131 122.099L113.49 87.552l24.198-12.518 38.412 46.701.031.364z"
          clip-rule="evenodd"/>
  </mask>
  <g mask="url(#b)">
    <path fill="url(#paint1_linear)" fill-rule="evenodd"
          d="M176.131 122.099L113.49 87.552l24.198-12.518 38.412 46.701.031.364z" clip-rule="evenodd"/>
  </g>
  <mask id="c" width="139" height="83" x="1" y="30" maskUnits="userSpaceOnUse">
    <path fill="#fff" fill-rule="evenodd" d="M9.248 30.473l69.56 75.807 56.683-31.288L10.889 30.437l-1.641.036z"
          clip-rule="evenodd"/>
  </mask>
  <g mask="url(#c)">
    <path fill="url(#paint2_linear)" fill-rule="evenodd"
          d="M9.248 30.473l69.56 75.807 56.683-31.288L10.889 30.437l-1.641.036z" clip-rule="evenodd"/>
  </g>
  <mask id="d" width="218" height="64" x="8" y="0" maskUnits="userSpaceOnUse">
    <path fill="#fff" fill-rule="evenodd" d="M9.223 30.677L170.449 56.89l55.027-30.539L9.223 30.677z"
          clip-rule="evenodd"/>
  </mask>
  <g mask="url(#d)">
    <path fill="url(#paint3_linear)" fill-rule="evenodd" d="M9.223 30.677L170.449 56.89l55.027-30.539L9.223 30.677z"
          clip-rule="evenodd"/>
  </g>
  <path fill="#8778E4" fill-rule="evenodd"
        d="M167.368 146.774a1.351 1.351 0 01-.146-.709c.173-2.433.288-4.911.34-7.363.014-.685.557-1.188 1.21-1.124.652.065 1.173.673 1.157 1.359a150.481 150.481 0 01-.347 7.493c-.047.68-.616 1.152-1.266 1.051a1.302 1.302 0 01-.948-.707zm-3.042 16.057a1.414 1.414 0 01-.136-.894c.454-2.516.852-5.083 1.179-7.628.092-.712.721-1.167 1.405-1.017.681.152 1.163.852 1.07 1.562a154.212 154.212 0 01-1.2 7.762c-.127.704-.779 1.123-1.457.934a1.385 1.385 0 01-.861-.719zm-2.978 16.181a1.36 1.36 0 01-.11-.982 136.65 136.65 0 001.747-6.946c.147-.65.769-.995 1.392-.768.621.226 1.009.938.862 1.59a141.427 141.427 0 01-1.779 7.066c-.179.64-.821.947-1.433.685a1.363 1.363 0 01-.679-.645zm-7.907 15.321a1.183 1.183 0 01.034-1.11 149.417 149.417 0 003.519-6.868c.309-.645 1.094-.972 1.756-.731.661.242.943.959.635 1.603a148.34 148.34 0 01-3.583 6.991c-.342.632-1.143.919-1.786.644a1.13 1.13 0 01-.575-.529zm-6.214 14.237a1.38 1.38 0 01.029-1.331 134.177 134.177 0 003.776-6.694c.334-.633 1.113-.837 1.741-.456.626.385.865 1.204.532 1.838-1.217 2.305-2.51 4.6-3.848 6.817-.366.61-1.159.769-1.765.354a1.415 1.415 0 01-.465-.528zm10.103 28.637a.978.978 0 01-.049-.108 112.548 112.548 0 00-2.959-6.814 1.264 1.264 0 01.61-1.676c.632-.301 1.353-.026 1.683.587a115 115 0 013.022 6.966 1.261 1.261 0 01-.718 1.632 1.257 1.257 0 01-1.589-.587zm-11.122-21.828c-.287-.562-.123-1.254.398-1.599.56-.37 1.32-.2 1.698.379a125.178 125.178 0 013.95 6.486 1.204 1.204 0 01-.438 1.694c-.581.331-1.331.113-1.672-.488a121.625 121.625 0 00-3.867-6.351 1.337 1.337 0 01-.069-.121zm17.049 37.868a1.357 1.357 0 01-.106-.286 112.558 112.558 0 00-2.016-7.249 1.248 1.248 0 01.811-1.576 1.262 1.262 0 011.57.848 116.541 116.541 0 012.062 7.415 1.243 1.243 0 01-.915 1.514 1.267 1.267 0 01-1.406-.666zm-27.431-51.636c-.259-.506-.166-1.135.261-1.516.504-.448 1.282-.381 1.738.151a127.835 127.835 0 014.826 5.996c.422.556.334 1.349-.197 1.765-.532.414-1.306.297-1.729-.263a124.064 124.064 0 00-4.725-5.871 1.34 1.34 0 01-.174-.262zm29.33 68.578a1.184 1.184 0 01-.126-.484 110.291 110.291 0 00-.633-7.869c-.086-.728.489-1.441 1.283-1.593.792-.151 1.506.315 1.591 1.044.309 2.644.528 5.349.647 8.043.034.737-.587 1.418-1.384 1.521-.608.077-1.143-.201-1.378-.662zm-41.031-80.529c-.235-.46-.149-1.054.267-1.498.549-.586 1.461-.687 2.038-.229a115.453 115.453 0 016.137 5.243c.535.495.504 1.346-.078 1.9-.586.553-1.496.601-2.037.106a112.303 112.303 0 00-6.008-5.131 1.176 1.176 0 01-.319-.391zm14.272 32.416c-.234-.459-.212-1.02.098-1.42.519-.669 1.031-1.341 1.536-2.018a123.19 123.19 0 002.77-3.894c.384-.562 1.151-.652 1.716-.202.562.449.705 1.27.322 1.832a123.08 123.08 0 01-2.824 3.968c-.515.691-1.035 1.376-1.565 2.058-.416.535-1.189.579-1.73.097a1.432 1.432 0 01-.323-.421zm28.195 64.147a1.463 1.463 0 01-.162-.685c.025-2.649-.03-5.333-.162-7.976-.038-.743.499-1.329 1.201-1.309.699.019 1.298.637 1.336 1.381.136 2.699.191 5.439.165 8.146-.007.74-.582 1.287-1.284 1.219-.47-.045-.88-.355-1.094-.776zm-55.547-106.815a1.236 1.236 0 011.768-1.603 113.432 113.432 0 016.173 4.262 1.237 1.237 0 01-1.472 1.988 108.67 108.67 0 00-6.036-4.168 1.219 1.219 0 01-.433-.479zm53.019 123.88a1.337 1.337 0 01-.129-.838 124.45 124.45 0 001.076-7.624 1.24 1.24 0 011.409-1.11 1.343 1.343 0 011.127 1.473 127.466 127.466 0 01-1.097 7.788 1.239 1.239 0 01-1.479 1.015 1.328 1.328 0 01-.907-.704zM96.715 171.11a1.385 1.385 0 01-.079-1.1c.24-.663.962-.957 1.61-.658a90.289 90.289 0 017.022 3.626c.623.358.89 1.161.59 1.794-.297.632-1.045.857-1.669.499a87.67 87.67 0 00-6.814-3.52 1.405 1.405 0 01-.66-.641zm30.578 62.214c-.272-.533-.176-1.193.271-1.599a99.186 99.186 0 005.493-5.358c.494-.519 1.318-.515 1.841.006.524.527.546 1.37.055 1.887a103.131 103.131 0 01-5.631 5.493c-.532.48-1.356.412-1.84-.147a1.35 1.35 0 01-.189-.282zm33.785 86.131a1.34 1.34 0 01-.106-.962c.639-2.283 1.214-4.62 1.709-6.945.139-.653.761-1.016 1.389-.81.63.204 1.025.901.885 1.553a118.54 118.54 0 01-1.744 7.094 1.06 1.06 0 01-1.444.711 1.34 1.34 0 01-.689-.641zM79.705 166.36a1.408 1.408 0 01-.14-.831 1.335 1.335 0 011.534-1.144 68.713 68.713 0 018.144 1.841c.726.209 1.159.972.964 1.705a1.33 1.33 0 01-1.662.943 66.243 66.243 0 00-7.823-1.767 1.391 1.391 0 01-1.017-.747zm35.677 76.627c-.274-.536-.041-1.221.541-1.555a81.686 81.686 0 006.245-3.97c.567-.397 1.332-.307 1.709.201.371.509.224 1.241-.344 1.637a85.345 85.345 0 01-6.453 4.104c-.602.346-1.349.184-1.669-.361-.011-.019-.019-.036-.029-.056zm39.125 92.207a1.195 1.195 0 01.037-1.131 122.108 122.108 0 003.531-6.847c.307-.645 1.091-.968 1.751-.721.658.25.944.971.637 1.616a125.715 125.715 0 01-3.608 6.994c-.349.628-1.149.905-1.788.616a1.16 1.16 0 01-.56-.527zM64.869 165.878a1.143 1.143 0 01-.104-.309c-.124-.665.347-1.333 1.052-1.493a47.954 47.954 0 017.962-1.092c.715-.041 1.291.484 1.288 1.165-.003.682-.587 1.268-1.302 1.306-2.57.139-5.094.486-7.502 1.03-.588.132-1.151-.131-1.394-.607zm84.735 179.517c-.216-.423-.224-.934.022-1.343a112.572 112.572 0 002.066-3.576c.343-.618 1.118-.791 1.732-.387.614.405.834 1.237.492 1.857a116.69 116.69 0 01-2.111 3.654c-.365.605-1.148.749-1.749.322a1.462 1.462 0 01-.452-.527zM98.69 249.878a1.593 1.593 0 01-.107-.267c-.224-.745.146-1.487.824-1.657a53.015 53.015 0 007.046-2.305c.644-.261 1.426.12 1.723.827.307.718.032 1.512-.613 1.775a55.357 55.357 0 01-7.347 2.403c-.594.148-1.227-.191-1.525-.776zm-48.268-77.112c-.255-.501-.114-1.136.368-1.509a35.475 35.475 0 015.567-3.532l.269-.136c.267-.133.542-.265.815-.393.629-.295 1.382-.088 1.644.555.28.602 0 1.329-.629 1.623-.254.119-.509.242-.763.368l-.245.124a33.002 33.002 0 00-5.155 3.271c-.547.422-1.329.346-1.743-.173a1.128 1.128 0 01-.128-.198zm33.913 77.573a1.393 1.393 0 01-.152-.647c.007-.71.566-1.246 1.248-1.192 2.423.188 4.85.196 7.21.024.676-.051 1.3.488 1.387 1.199.09.713-.384 1.33-1.06 1.378a50.427 50.427 0 01-7.564-.023c-.461-.036-.861-.332-1.069-.739zm-43.287-65.131a1.422 1.422 0 01-.047-1.216 40.19 40.19 0 013.962-6.944c.412-.577 1.215-.661 1.794-.186.578.469.714 1.323.302 1.901a37.61 37.61 0 00-3.715 6.513c-.293.656-1.057.9-1.704.547a1.466 1.466 0 01-.592-.615zm26.277 62.583a1.28 1.28 0 01-.044-1.054 1.47 1.47 0 011.794-.853 58.28 58.28 0 007.766 1.92c.748.131 1.21.826 1.036 1.554-.173.726-.919 1.21-1.665 1.078a61.254 61.254 0 01-8.135-2.01 1.284 1.284 0 01-.752-.635zm-31.499-46.4a1.377 1.377 0 01-.149-.709c.165-2.675.553-5.34 1.153-7.919a1.205 1.205 0 011.525-.9c.68.197 1.105.922.94 1.618a45.38 45.38 0 00-1.087 7.484c-.044.719-.648 1.237-1.346 1.159a1.338 1.338 0 01-1.036-.733zm17.982 37.495a1.248 1.248 0 01.114-1.328 1.202 1.202 0 011.712-.193 48.03 48.03 0 005.979 4.071c.59.34.809 1.098.484 1.692a1.196 1.196 0 01-1.659.457 50.347 50.347 0 01-6.291-4.285 1.247 1.247 0 01-.339-.414zm-15.155-20.934a1.652 1.652 0 01-.086-.204 48.52 48.52 0 01-1.861-7.646c-.11-.69.31-1.285.94-1.327.628-.043 1.23.483 1.338 1.173.39 2.451.977 4.87 1.75 7.189.222.673-.081 1.352-.679 1.521-.534.151-1.123-.159-1.402-.706zm4.334 8.506c-.3-.59-.05-1.342.584-1.711.658-.382 1.482-.207 1.838.391a37.8 37.8 0 004.364 5.916c.468.519.376 1.336-.209 1.82-.586.483-1.44.451-1.908-.07a40.153 40.153 0 01-4.67-6.346z"
        clip-rule="evenodd"/>
  <mask id="e" width="170" height="152" x="302" y="46" maskUnits="userSpaceOnUse">
    <path fill="#fff" fill-rule="evenodd"
          d="M302.012 112.481l17.449 84.699.078.409 58.379-57.339 94.024-92.337-.639-1.884-169.291 66.452z"
          clip-rule="evenodd"/>
  </mask>
  <g mask="url(#e)">
    <path fill="url(#paint4_linear)"
          d="M302.012 112.481l17.449 84.699.078.409 58.379-57.339 94.024-92.337-.639-1.884-169.291 66.452z"/>
  </g>
  <mask id="f" width="59" height="64" x="320" y="134" maskUnits="userSpaceOnUse">
    <path fill="#fff" fill-rule="evenodd" d="M320.457 197.191l.076.403 57.81-56.554-30.178-6.18-27.708 62.331z"
          clip-rule="evenodd"/>
  </mask>
  <g mask="url(#f)">
    <path fill="url(#paint5_linear)" d="M320.457 197.191l.076.403 57.81-56.554-30.178-6.18-27.708 62.331z"/>
  </g>
  <mask id="g" width="126" height="120" x="347" y="46" maskUnits="userSpaceOnUse">
    <path fill="#fff" fill-rule="evenodd" d="M471.165 47.162l-124.059 87.244 88.164 31.535 37.723-119.243-1.828.464z"
          clip-rule="evenodd"/>
  </mask>
  <g mask="url(#g)">
    <path fill="url(#paint6_linear)" d="M471.165 47.162l-124.059 87.244 88.164 31.535 37.723-119.243-1.828.464z"/>
  </g>
  <mask id="h" width="226" height="80" x="247" y="45" maskUnits="userSpaceOnUse">
    <path fill="#fff" fill-rule="evenodd" d="M247.032 111.252l56.9 13.57 169.061-79.111-225.961 65.541z"
          clip-rule="evenodd"/>
  </mask>
  <g mask="url(#h)">
    <path fill="url(#paint7_linear)" d="M247.032 111.252l56.9 13.57 169.061-79.111-225.961 65.541z"/>
  </g>
  <path fill="#53BD95" fill-rule="evenodd"
        d="M240.998 172.253a1.456 1.456 0 01-1.11-.901 1.411 1.411 0 01.832-1.842c3.008-1.12 6.032-1.72 8.993-1.784a1.454 1.454 0 011.496 1.396 1.427 1.427 0 01-1.414 1.46c-2.627.058-5.326.595-8.024 1.601a1.49 1.49 0 01-.773.07zm22.895 6.311a1.5 1.5 0 01-.984-.618 15.963 15.963 0 00-3.459-3.622 16.385 16.385 0 00-2.265-1.457c-.698-.372-.954-1.181-.569-1.807.382-.628 1.264-.833 1.955-.465a19.364 19.364 0 012.687 1.728 18.767 18.767 0 014.076 4.27c.43.625.235 1.436-.435 1.809a1.519 1.519 0 01-1.006.162zm-37.444 5.983a1.235 1.235 0 01-.498-.21c-.633-.446-.801-1.395-.376-2.121a38.28 38.28 0 011.012-1.636 32.203 32.203 0 014.828-5.764c.592-.559 1.46-.498 1.939.145.477.64.385 1.614-.208 2.175a29.051 29.051 0 00-4.356 5.198c-.322.491-.63.989-.927 1.496-.32.547-.884.81-1.414.717zm39.321 10.417l-.047-.01c-.626-.144-.995-.923-.825-1.737.093-.449.179-.897.258-1.346.442-2.499.649-4.918.617-7.191-.012-.823.504-1.562 1.153-1.652.639-.091 1.183.504 1.194 1.329.037 2.516-.191 5.18-.675 7.918-.086.487-.179.976-.282 1.464-.165.795-.783 1.332-1.393 1.225zm43.596 20.568a1.127 1.127 0 01-.696-.434c-.475-.609-.426-1.608.111-2.233a214.77 214.77 0 005.668-6.885c.516-.653 1.34-.708 1.839-.126.5.58.488 1.579-.028 2.23a219.131 219.131 0 01-5.754 6.99c-.323.375-.747.528-1.14.458zm-87.773-15.599c-.667-.118-1.147-.769-1.1-1.532a46.82 46.82 0 01.612-5.128c.243-1.38.552-2.755.917-4.082.221-.799.973-1.275 1.705-1.059.721.216 1.126 1.036.905 1.835a41.663 41.663 0 00-.848 3.778 42.876 42.876 0 00-.566 4.761c-.054.828-.705 1.475-1.457 1.444a1.166 1.166 0 01-.168-.017zm35.848 12.701a1.312 1.312 0 01-.62-.294c-.586-.501-.669-1.421-.185-2.057a53.668 53.668 0 001.569-2.17 39.346 39.346 0 002.88-4.954c.355-.722 1.185-1.02 1.858-.658.672.361.93 1.239.576 1.963a42.715 42.715 0 01-3.105 5.339 58.598 58.598 0 01-1.656 2.292 1.362 1.362 0 01-1.317.539zm37.305 12.774a1.514 1.514 0 01-.965-.595 1.355 1.355 0 01.357-1.956 101.708 101.708 0 006.92-4.975 1.538 1.538 0 012.084.209 1.36 1.36 0 01-.181 1.982 105.21 105.21 0 01-7.119 5.115c-.33.216-.726.285-1.096.22zm-70.98-7.188c-.395-.07-.742-.365-.907-.829a45.914 45.914 0 01-2.13-8.785c-.116-.807.347-1.613 1.034-1.803.69-.186 1.337.314 1.452 1.119a42.59 42.59 0 001.98 8.159c.262.746-.046 1.643-.691 2.006a1.106 1.106 0 01-.738.133zm-95.498-17.951c-.652-.115-1.179-.493-1.222-.904-.048-.458.525-.784 1.277-.727 2.572.195 5.277.541 8.044 1.029l.379.068c.75.136 1.287.606 1.201 1.046-.086.438-.754.685-1.497.554l-.017-.003-.363-.066a77.13 77.13 0 00-7.573-.968 2.308 2.308 0 01-.229-.029zm116.467 22.137a1.49 1.49 0 01-.988-.642 1.375 1.375 0 01.439-1.953 57.872 57.872 0 006.863-4.902 1.516 1.516 0 012.074.158 1.38 1.38 0 01-.137 1.999 60.18 60.18 0 01-7.208 5.145 1.49 1.49 0 01-1.043.195zm-91.543-16.724a1.508 1.508 0 01-.337-.098 98.58 98.58 0 00-7.692-2.886c-.732-.237-1.134-.952-.896-1.595.237-.642 1.03-.97 1.753-.731a101.79 101.79 0 017.937 2.976c.706.297 1.033 1.039.729 1.656-.257.521-.881.786-1.494.678zm126.69 28.646c-.489-.086-.923-.399-1.111-.858-.283-.684.088-1.43.825-1.667a59.933 59.933 0 005.709-2.152 74.306 74.306 0 001.9-.862c.696-.325 1.563-.068 1.943.58.378.645.123 1.434-.572 1.761-.651.306-1.307.604-1.97.895a63.33 63.33 0 01-5.987 2.255c-.244.078-.497.09-.737.048zm-169.035-30.006a1.391 1.391 0 01-1.015-.769 1.414 1.414 0 01.646-1.883 40.729 40.729 0 018.032-2.979c.749-.184 1.562.255 1.749 1.006.189.752-.207 1.503-.953 1.696l-.346-1.364.329 1.368c-.015.005-.126.031-.141.036-2.47.621-4.987 1.555-7.447 2.766a1.382 1.382 0 01-.854.123zm58.131 10.338a1.375 1.375 0 01-.472-.176 362.842 362.842 0 00-7.447-4.366c-.694-.394-.942-1.298-.553-2.021.389-.725 1.267-.986 1.958-.599a358.505 358.505 0 017.505 4.4c.686.409.913 1.32.507 2.035a1.44 1.44 0 01-1.498.727zm57.94 15.586c-.543-.096-1.017-.444-1.185-.924-.231-.661.208-1.319.979-1.473a64.655 64.655 0 002.768-.611 35.816 35.816 0 01-1.982-1.806c-.54-.531-.492-1.303.103-1.724.597-.421 1.519-.333 2.059.195a32.76 32.76 0 002.875 2.514c.724-.214 1.442-.44 2.153-.678.731-.245 1.596.071 1.932.704.335.632.015 1.342-.715 1.585-.248.084-.496.166-.747.245.278.179.559.357.843.53.671.409.853 1.179.409 1.719-.446.542-1.348.644-2.018.238a42.824 42.824 0 01-2.374-1.563c-1.475.397-2.97.745-4.473 1.043-.21.041-.424.042-.627.006zm34.215 6.015c-.644-.114-1.164-.558-1.218-1.081-.06-.603.52-1.086 1.296-1.077a69.842 69.842 0 008.149-.382c.759-.081 1.517.34 1.691.938.177.599-.298 1.149-1.057 1.228a72.941 72.941 0 01-8.56.402 1.83 1.83 0 01-.301-.028zm-77.144-13.599a1.331 1.331 0 01-.389-.134 166.35 166.35 0 01-7.578-4.3c-.686-.408-.915-1.35-.519-2.1.399-.752 1.272-1.032 1.959-.619 2.766 1.656 5.205 3.039 7.455 4.229.701.371.976 1.297.613 2.067-.299.633-.935.964-1.541.857zm66.623 13.902a74.016 74.016 0 01-7.515-1.724c-.725-.209-1.143-.709-.935-1.119.21-.409.97-.575 1.693-.366a68.908 68.908 0 007.038 1.615l.752.129.02.003c.742.131 1.286.587 1.22 1.025-.065.442-.728.698-1.479.573l-.794-.136zm-40.503-6.307c-.686-.121-1.196-.691-1.17-1.337.03-.698.678-1.223 1.444-1.174 2.683.178 5.419.17 8.132-.022.766-.055 1.452.468 1.537 1.166.086.698-.464 1.308-1.228 1.362-2.85.202-5.727.211-8.547.025a1.571 1.571 0 01-.168-.02zm-8.902-1.572l-.084-.018c-2.655-.646-5.297-1.485-8.082-2.566-.714-.276-1.067-1.11-.792-1.859.279-.75 1.078-1.133 1.794-.857 2.675 1.037 5.209 1.842 7.75 2.462.741.181 1.193.957 1.01 1.737-.179.748-.88 1.227-1.596 1.101zm-105.741-14.15a1.121 1.121 0 01-.648-.37c-.464-.519-.443-1.372.045-1.903a65.096 65.096 0 015.715-5.524c.542-.462 1.304-.359 1.702.222.398.584.281 1.43-.263 1.891a62.37 62.37 0 00-5.477 5.297c-.297.323-.7.453-1.074.387zm-11.117 13.083a1.135 1.135 0 01-.492-.221c-.577-.443-.706-1.363-.29-2.055a114.71 114.71 0 014.846-7.397c.463-.65 1.275-.774 1.814-.267.54.501.601 1.436.137 2.086a111.357 111.357 0 00-4.71 7.187c-.306.509-.823.751-1.305.667zm-7.929 16.1a1.31 1.31 0 01-.317-.099c-.683-.313-.984-1.148-.675-1.865 1.14-2.626 2.39-5.23 3.718-7.743.365-.69 1.19-.953 1.848-.578.655.37.892 1.228.527 1.917a108.013 108.013 0 00-3.62 7.538c-.263.607-.882.936-1.48.83zm-6.34 16.124a.813.813 0 01-.083-.019c-.595-.169-.922-.963-.732-1.772a159.166 159.166 0 012.346-8.828c.235-.795.898-1.246 1.473-1.019.578.232.855 1.062.62 1.857a154.312 154.312 0 00-2.287 8.602c-.18.771-.768 1.28-1.336 1.179zm-2.43 16.101c-.659-.116-1.117-.793-1.04-1.574.296-3.013.697-6.055 1.19-9.04.135-.82.822-1.389 1.533-1.275.652.144 1.177.873 1.041 1.691a135.593 135.593 0 00-1.16 8.814c-.081.825-.73 1.452-1.448 1.398a1.09 1.09 0 01-.116-.014zm-.835 18.109c-.533-.094-.948-.59-.979-1.235a126.047 126.047 0 01-.119-8.453c.017-.77.576-1.41 1.252-1.43.68-.024 1.21.59 1.195 1.358-.054 2.745-.015 5.517.115 8.24.037.765-.48 1.451-1.154 1.529-.106.012-.21.009-.31-.009zm4.8 17.141a1.402 1.402 0 01-1.11-1.059 111.044 111.044 0 01-1.761-8.634c-.13-.788.388-1.546 1.154-1.689.768-.147 1.491.383 1.622 1.173.46 2.833 1.036 5.66 1.712 8.401.19.775-.265 1.574-1.018 1.779a1.356 1.356 0 01-.599.029zm3.348 15.046c-.384-.067-.725-.338-.894-.761a99.96 99.96 0 01-2.437-6.865c-.222-.707.12-1.501.764-1.774.643-.277 1.346.074 1.569.78a97.03 97.03 0 002.368 6.671c.27.684-.016 1.502-.64 1.831-.24.124-.492.16-.73.118z"
        clip-rule="evenodd"/>
  <defs>
    <linearGradient id="paint0_linear" x1="-26.635" x2="10.973" y1="53.881" y2="160.292" gradientUnits="userSpaceOnUse">
      <stop stop-color="#8A7DDC"/>
      <stop offset="1" stop-color="#A599F2"/>
    </linearGradient>
    <linearGradient id="paint1_linear" x1="99.901" x2="128.206" y1="88.209" y2="138.335" gradientUnits="userSpaceOnUse">
      <stop stop-color="#6152BD"/>
      <stop offset="1" stop-color="#897BDD"/>
    </linearGradient>
    <linearGradient id="paint2_linear" x1="-20.364" x2="19.273" y1="54.998" y2="144.536" gradientUnits="userSpaceOnUse">
      <stop stop-color="#6152BD"/>
      <stop offset="1" stop-color="#897BDD"/>
    </linearGradient>
    <linearGradient id="paint3_linear" x1="-31.861" x2="-27.116" y1="10.444" y2="72.051" gradientUnits="userSpaceOnUse">
      <stop stop-color="#6152BD"/>
      <stop offset="1" stop-color="#897BDD"/>
    </linearGradient>
    <linearGradient id="paint4_linear" x1="259.669" x2="384.413" y1="131.759" y2="234.071"
                    gradientUnits="userSpaceOnUse">
      <stop offset=".21" stop-color="#98D3BD"/>
      <stop offset="1" stop-color="#28966E"/>
    </linearGradient>
    <linearGradient id="paint5_linear" x1="308.007" x2="354.289" y1="169.944" y2="201.116"
                    gradientUnits="userSpaceOnUse">
      <stop stop-color="#70C8A8"/>
      <stop offset=".452" stop-color="#3CA17B"/>
      <stop offset="1" stop-color="#245945"/>
    </linearGradient>
    <linearGradient id="paint6_linear" x1="484.116" x2="503.677" y1="176.221" y2="77.615"
                    gradientUnits="userSpaceOnUse">
      <stop stop-color="#82D8B9"/>
      <stop offset=".452" stop-color="#52BD95"/>
      <stop offset="1" stop-color="#39B386"/>
    </linearGradient>
    <linearGradient id="paint7_linear" x1="198.434" x2="247.552" y1="89.953" y2="192.358"
                    gradientUnits="userSpaceOnUse">
      <stop stop-color="#84DEBD"/>
      <stop offset=".452" stop-color="#52BD95"/>
      <stop offset="1" stop-color="#39B386"/>
    </linearGradient>
  </defs>
</svg>
